<svg width="63" height="15" viewBox="0 0 63 15" fill="none" xmlns="http://www.w3.org/2000/svg">
<path d="M12.135 12V5.4C12.135 4.672 12.351 4.092 12.783 3.66C13.215 3.22 13.831 3 14.631 3C14.903 3 15.163 3.028 15.411 3.084C15.667 3.14 15.883 3.228 16.059 3.348L15.567 4.704C15.463 4.632 15.347 4.576 15.219 4.536C15.091 4.496 14.955 4.476 14.811 4.476C14.539 4.476 14.327 4.556 14.175 4.716C14.031 4.868 13.959 5.1 13.959 5.412V6.012L14.007 6.816V12H12.135ZM11.139 7.128V5.688H15.615V7.128H11.139ZM24.081 5.448C24.593 5.448 25.049 5.552 25.449 5.76C25.857 5.96 26.177 6.272 26.409 6.696C26.641 7.112 26.757 7.648 26.757 8.304V12H24.885V8.592C24.885 8.072 24.769 7.688 24.537 7.44C24.313 7.192 23.993 7.068 23.577 7.068C23.281 7.068 23.013 7.132 22.773 7.26C22.541 7.38 22.357 7.568 22.221 7.824C22.093 8.08 22.029 8.408 22.029 8.808V12H20.157V5.544H21.945V7.332L21.609 6.792C21.841 6.36 22.173 6.028 22.605 5.796C23.037 5.564 23.529 5.448 24.081 5.448ZM30.0887 12L27.3767 5.544H29.3087L31.5647 11.1H30.6047L32.9447 5.544H34.7447L32.0207 12H30.0887ZM38.5368 12.096C37.8008 12.096 37.1528 11.952 36.5928 11.664C36.0408 11.376 35.6128 10.984 35.3088 10.488C35.0048 9.984 34.8528 9.412 34.8528 8.772C34.8528 8.124 35.0008 7.552 35.2968 7.056C35.6008 6.552 36.0128 6.16 36.5328 5.88C37.0528 5.592 37.6408 5.448 38.2968 5.448C38.9288 5.448 39.4968 5.584 40.0008 5.856C40.5128 6.12 40.9168 6.504 41.2128 7.008C41.5088 7.504 41.6568 8.1 41.6568 8.796C41.6568 8.868 41.6528 8.952 41.6448 9.048C41.6368 9.136 41.6288 9.22 41.6208 9.3H36.3768V8.208H40.6367L39.9168 8.532C39.9168 8.196 39.8488 7.904 39.7128 7.656C39.5768 7.408 39.3888 7.216 39.1488 7.08C38.9088 6.936 38.6288 6.864 38.3088 6.864C37.9888 6.864 37.7048 6.936 37.4568 7.08C37.2168 7.216 37.0288 7.412 36.8928 7.668C36.7568 7.916 36.6888 8.212 36.6888 8.556V8.844C36.6888 9.196 36.7648 9.508 36.9168 9.78C37.0768 10.044 37.2968 10.248 37.5768 10.392C37.8648 10.528 38.2008 10.596 38.5848 10.596C38.9288 10.596 39.2288 10.544 39.4848 10.44C39.7488 10.336 39.9888 10.18 40.2048 9.972L41.2008 11.052C40.9048 11.388 40.5328 11.648 40.0848 11.832C39.6368 12.008 39.1208 12.096 38.5368 12.096ZM46.8271 5.448C47.3391 5.448 47.7951 5.552 48.1951 5.76C48.6031 5.96 48.9231 6.272 49.1551 6.696C49.3871 7.112 49.5031 7.648 49.5031 8.304V12H47.6311V8.592C47.6311 8.072 47.5151 7.688 47.2831 7.44C47.0591 7.192 46.7391 7.068 46.3231 7.068C46.0271 7.068 45.7591 7.132 45.5191 7.26C45.2871 7.38 45.1031 7.568 44.9671 7.824C44.8391 8.08 44.7751 8.408 44.7751 8.808V12H42.9031V5.544H44.6911V7.332L44.3551 6.792C44.5871 6.36 44.9191 6.028 45.3511 5.796C45.7831 5.564 46.2751 5.448 46.8271 5.448ZM53.8399 12.096C53.0799 12.096 52.4879 11.904 52.0639 11.52C51.6399 11.128 51.4279 10.548 51.4279 9.78V4.116H53.2999V9.756C53.2999 10.028 53.3719 10.24 53.5159 10.392C53.6599 10.536 53.8559 10.608 54.1039 10.608C54.3999 10.608 54.6519 10.528 54.8599 10.368L55.3639 11.688C55.1719 11.824 54.9399 11.928 54.6679 12C54.4039 12.064 54.1279 12.096 53.8399 12.096ZM50.4319 7.128V5.688H54.9079V7.128H50.4319ZM60.3748 12V10.74L60.2548 10.464V8.208C60.2548 7.808 60.1308 7.496 59.8828 7.272C59.6428 7.048 59.2708 6.936 58.7668 6.936C58.4228 6.936 58.0828 6.992 57.7468 7.104C57.4188 7.208 57.1388 7.352 56.9068 7.536L56.2348 6.228C56.5868 5.98 57.0108 5.788 57.5068 5.652C58.0028 5.516 58.5068 5.448 59.0188 5.448C60.0028 5.448 60.7668 5.68 61.3108 6.144C61.8548 6.608 62.1268 7.332 62.1268 8.316V12H60.3748ZM58.4068 12.096C57.9028 12.096 57.4708 12.012 57.1108 11.844C56.7508 11.668 56.4748 11.432 56.2828 11.136C56.0908 10.84 55.9948 10.508 55.9948 10.14C55.9948 9.756 56.0868 9.42 56.2708 9.132C56.4628 8.844 56.7628 8.62 57.1708 8.46C57.5788 8.292 58.1108 8.208 58.7668 8.208H60.4828V9.3H58.9708C58.5308 9.3 58.2268 9.372 58.0588 9.516C57.8988 9.66 57.8188 9.84 57.8188 10.056C57.8188 10.296 57.9108 10.488 58.0948 10.632C58.2868 10.768 58.5468 10.836 58.8748 10.836C59.1868 10.836 59.4668 10.764 59.7148 10.62C59.9628 10.468 60.1428 10.248 60.2548 9.96L60.5428 10.824C60.4068 11.24 60.1588 11.556 59.7988 11.772C59.4388 11.988 58.9748 12.096 58.4068 12.096Z" fill="#0C1C2B"/>
<path d="M16.5476 12V5.544H18.4196V12H16.5476ZM17.4836 4.644C17.1396 4.644 16.8596 4.544 16.6436 4.344C16.4276 4.144 16.3196 3.896 16.3196 3.6C16.3196 3.304 16.4276 3.056 16.6436 2.856C16.8596 2.656 17.1396 2.556 17.4836 2.556C17.8276 2.556 18.1076 2.652 18.3236 2.844C18.5396 3.028 18.6476 3.268 18.6476 3.564C18.6476 3.876 18.5396 4.136 18.3236 4.344C18.1156 4.544 17.8356 4.644 17.4836 4.644Z" fill="#00B77E"/>
<path d="M5 12.3889V1.27779" stroke="#00B77E" stroke-width="2" stroke-linecap="round" stroke-linejoin="round"/>
<path d="M7.00877 7.96283L5.00877 9.07394" stroke="#00B77E" stroke-width="2" stroke-linecap="round" stroke-linejoin="round"/>
<path d="M1 4.38889L5 1.05556L9 4.38889" stroke="#00B77E" stroke-width="2" stroke-linecap="round" stroke-linejoin="round"/>
</svg>
