<svg width="72" height="30" viewBox="0 0 72 30" fill="none" xmlns="http://www.w3.org/2000/svg">
<path d="M0 0H72V30H0V0Z" fill="white"/>
<path d="M16.135 20V13.4C16.135 12.672 16.351 12.092 16.783 11.66C17.215 11.22 17.831 11 18.631 11C18.903 11 19.163 11.028 19.411 11.084C19.667 11.14 19.883 11.228 20.059 11.348L19.567 12.704C19.463 12.632 19.347 12.576 19.219 12.536C19.091 12.496 18.955 12.476 18.811 12.476C18.539 12.476 18.327 12.556 18.175 12.716C18.031 12.868 17.959 13.1 17.959 13.412V14.012L18.007 14.816V20H16.135ZM15.139 15.128V13.688H19.615V15.128H15.139ZM28.081 13.448C28.593 13.448 29.049 13.552 29.449 13.76C29.857 13.96 30.177 14.272 30.409 14.696C30.641 15.112 30.757 15.648 30.757 16.304V20H28.885V16.592C28.885 16.072 28.769 15.688 28.537 15.44C28.313 15.192 27.993 15.068 27.577 15.068C27.281 15.068 27.013 15.132 26.773 15.26C26.541 15.38 26.357 15.568 26.221 15.824C26.093 16.08 26.029 16.408 26.029 16.808V20H24.157V13.544H25.945V15.332L25.609 14.792C25.841 14.36 26.173 14.028 26.605 13.796C27.037 13.564 27.529 13.448 28.081 13.448ZM34.0887 20L31.3767 13.544H33.3087L35.5647 19.1H34.6047L36.9447 13.544H38.7447L36.0207 20H34.0887ZM42.5368 20.096C41.8008 20.096 41.1528 19.952 40.5928 19.664C40.0408 19.376 39.6128 18.984 39.3088 18.488C39.0048 17.984 38.8528 17.412 38.8528 16.772C38.8528 16.124 39.0008 15.552 39.2968 15.056C39.6008 14.552 40.0128 14.16 40.5328 13.88C41.0528 13.592 41.6408 13.448 42.2968 13.448C42.9288 13.448 43.4968 13.584 44.0008 13.856C44.5128 14.12 44.9168 14.504 45.2128 15.008C45.5088 15.504 45.6568 16.1 45.6568 16.796C45.6568 16.868 45.6528 16.952 45.6448 17.048C45.6368 17.136 45.6288 17.22 45.6208 17.3H40.3768V16.208H44.6367L43.9168 16.532C43.9168 16.196 43.8488 15.904 43.7128 15.656C43.5768 15.408 43.3888 15.216 43.1488 15.08C42.9088 14.936 42.6288 14.864 42.3088 14.864C41.9888 14.864 41.7048 14.936 41.4568 15.08C41.2168 15.216 41.0288 15.412 40.8928 15.668C40.7568 15.916 40.6888 16.212 40.6888 16.556V16.844C40.6888 17.196 40.7648 17.508 40.9168 17.78C41.0768 18.044 41.2968 18.248 41.5768 18.392C41.8648 18.528 42.2008 18.596 42.5848 18.596C42.9288 18.596 43.2288 18.544 43.4848 18.44C43.7488 18.336 43.9888 18.18 44.2048 17.972L45.2008 19.052C44.9048 19.388 44.5328 19.648 44.0848 19.832C43.6368 20.008 43.1208 20.096 42.5368 20.096ZM50.8271 13.448C51.3391 13.448 51.7951 13.552 52.1951 13.76C52.6031 13.96 52.9231 14.272 53.1551 14.696C53.3871 15.112 53.5031 15.648 53.5031 16.304V20H51.6311V16.592C51.6311 16.072 51.5151 15.688 51.2831 15.44C51.0591 15.192 50.7391 15.068 50.3231 15.068C50.0271 15.068 49.7591 15.132 49.5191 15.26C49.2871 15.38 49.1031 15.568 48.9671 15.824C48.8391 16.08 48.7751 16.408 48.7751 16.808V20H46.9031V13.544H48.6911V15.332L48.3551 14.792C48.5871 14.36 48.9191 14.028 49.3511 13.796C49.7831 13.564 50.2751 13.448 50.8271 13.448ZM57.8399 20.096C57.0799 20.096 56.4879 19.904 56.0639 19.52C55.6399 19.128 55.4279 18.548 55.4279 17.78V12.116H57.2999V17.756C57.2999 18.028 57.3719 18.24 57.5159 18.392C57.6599 18.536 57.8559 18.608 58.1039 18.608C58.3999 18.608 58.6519 18.528 58.8599 18.368L59.3639 19.688C59.1719 19.824 58.9399 19.928 58.6679 20C58.4039 20.064 58.1279 20.096 57.8399 20.096ZM54.4319 15.128V13.688H58.9079V15.128H54.4319ZM64.3748 20V18.74L64.2548 18.464V16.208C64.2548 15.808 64.1308 15.496 63.8828 15.272C63.6428 15.048 63.2708 14.936 62.7668 14.936C62.4228 14.936 62.0828 14.992 61.7468 15.104C61.4188 15.208 61.1388 15.352 60.9068 15.536L60.2348 14.228C60.5868 13.98 61.0108 13.788 61.5068 13.652C62.0028 13.516 62.5068 13.448 63.0188 13.448C64.0028 13.448 64.7668 13.68 65.3108 14.144C65.8548 14.608 66.1268 15.332 66.1268 16.316V20H64.3748ZM62.4068 20.096C61.9028 20.096 61.4708 20.012 61.1108 19.844C60.7508 19.668 60.4748 19.432 60.2828 19.136C60.0908 18.84 59.9948 18.508 59.9948 18.14C59.9948 17.756 60.0868 17.42 60.2708 17.132C60.4628 16.844 60.7628 16.62 61.1708 16.46C61.5788 16.292 62.1108 16.208 62.7668 16.208H64.4828V17.3H62.9708C62.5308 17.3 62.2268 17.372 62.0588 17.516C61.8988 17.66 61.8188 17.84 61.8188 18.056C61.8188 18.296 61.9108 18.488 62.0948 18.632C62.2868 18.768 62.5468 18.836 62.8748 18.836C63.1868 18.836 63.4668 18.764 63.7148 18.62C63.9628 18.468 64.1428 18.248 64.2548 17.96L64.5428 18.824C64.4068 19.24 64.1588 19.556 63.7988 19.772C63.4388 19.988 62.9748 20.096 62.4068 20.096Z" fill="black"/>
<path d="M20.5476 20V13.544H22.4196V20H20.5476ZM21.4836 12.644C21.1396 12.644 20.8596 12.544 20.6436 12.344C20.4276 12.144 20.3196 11.896 20.3196 11.6C20.3196 11.304 20.4276 11.056 20.6436 10.856C20.8596 10.656 21.1396 10.556 21.4836 10.556C21.8276 10.556 22.1076 10.652 22.3236 10.844C22.5396 11.028 22.6476 11.268 22.6476 11.564C22.6476 11.876 22.5396 12.136 22.3236 12.344C22.1156 12.544 21.8356 12.644 21.4836 12.644Z" fill="#00B77E"/>
<path d="M16.135 20V13.4C16.135 12.672 16.351 12.092 16.783 11.66C17.215 11.22 17.831 11 18.631 11C18.903 11 19.163 11.028 19.411 11.084C19.667 11.14 19.883 11.228 20.059 11.348L19.567 12.704C19.463 12.632 19.347 12.576 19.219 12.536C19.091 12.496 18.955 12.476 18.811 12.476C18.539 12.476 18.327 12.556 18.175 12.716C18.031 12.868 17.959 13.1 17.959 13.412V14.012L18.007 14.816V20H16.135ZM15.139 15.128V13.688H19.615V15.128H15.139ZM28.081 13.448C28.593 13.448 29.049 13.552 29.449 13.76C29.857 13.96 30.177 14.272 30.409 14.696C30.641 15.112 30.757 15.648 30.757 16.304V20H28.885V16.592C28.885 16.072 28.769 15.688 28.537 15.44C28.313 15.192 27.993 15.068 27.577 15.068C27.281 15.068 27.013 15.132 26.773 15.26C26.541 15.38 26.357 15.568 26.221 15.824C26.093 16.08 26.029 16.408 26.029 16.808V20H24.157V13.544H25.945V15.332L25.609 14.792C25.841 14.36 26.173 14.028 26.605 13.796C27.037 13.564 27.529 13.448 28.081 13.448ZM34.0887 20L31.3767 13.544H33.3087L35.5647 19.1H34.6047L36.9447 13.544H38.7447L36.0207 20H34.0887ZM42.5368 20.096C41.8008 20.096 41.1528 19.952 40.5928 19.664C40.0408 19.376 39.6128 18.984 39.3088 18.488C39.0048 17.984 38.8528 17.412 38.8528 16.772C38.8528 16.124 39.0008 15.552 39.2968 15.056C39.6008 14.552 40.0128 14.16 40.5328 13.88C41.0528 13.592 41.6408 13.448 42.2968 13.448C42.9288 13.448 43.4968 13.584 44.0008 13.856C44.5128 14.12 44.9168 14.504 45.2128 15.008C45.5088 15.504 45.6568 16.1 45.6568 16.796C45.6568 16.868 45.6528 16.952 45.6448 17.048C45.6368 17.136 45.6288 17.22 45.6208 17.3H40.3768V16.208H44.6367L43.9168 16.532C43.9168 16.196 43.8488 15.904 43.7128 15.656C43.5768 15.408 43.3888 15.216 43.1488 15.08C42.9088 14.936 42.6288 14.864 42.3088 14.864C41.9888 14.864 41.7048 14.936 41.4568 15.08C41.2168 15.216 41.0288 15.412 40.8928 15.668C40.7568 15.916 40.6888 16.212 40.6888 16.556V16.844C40.6888 17.196 40.7648 17.508 40.9168 17.78C41.0768 18.044 41.2968 18.248 41.5768 18.392C41.8648 18.528 42.2008 18.596 42.5848 18.596C42.9288 18.596 43.2288 18.544 43.4848 18.44C43.7488 18.336 43.9888 18.18 44.2048 17.972L45.2008 19.052C44.9048 19.388 44.5328 19.648 44.0848 19.832C43.6368 20.008 43.1208 20.096 42.5368 20.096ZM50.8271 13.448C51.3391 13.448 51.7951 13.552 52.1951 13.76C52.6031 13.96 52.9231 14.272 53.1551 14.696C53.3871 15.112 53.5031 15.648 53.5031 16.304V20H51.6311V16.592C51.6311 16.072 51.5151 15.688 51.2831 15.44C51.0591 15.192 50.7391 15.068 50.3231 15.068C50.0271 15.068 49.7591 15.132 49.5191 15.26C49.2871 15.38 49.1031 15.568 48.9671 15.824C48.8391 16.08 48.7751 16.408 48.7751 16.808V20H46.9031V13.544H48.6911V15.332L48.3551 14.792C48.5871 14.36 48.9191 14.028 49.3511 13.796C49.7831 13.564 50.2751 13.448 50.8271 13.448ZM57.8399 20.096C57.0799 20.096 56.4879 19.904 56.0639 19.52C55.6399 19.128 55.4279 18.548 55.4279 17.78V12.116H57.2999V17.756C57.2999 18.028 57.3719 18.24 57.5159 18.392C57.6599 18.536 57.8559 18.608 58.1039 18.608C58.3999 18.608 58.6519 18.528 58.8599 18.368L59.3639 19.688C59.1719 19.824 58.9399 19.928 58.6679 20C58.4039 20.064 58.1279 20.096 57.8399 20.096ZM54.4319 15.128V13.688H58.9079V15.128H54.4319ZM64.3748 20V18.74L64.2548 18.464V16.208C64.2548 15.808 64.1308 15.496 63.8828 15.272C63.6428 15.048 63.2708 14.936 62.7668 14.936C62.4228 14.936 62.0828 14.992 61.7468 15.104C61.4188 15.208 61.1388 15.352 60.9068 15.536L60.2348 14.228C60.5868 13.98 61.0108 13.788 61.5068 13.652C62.0028 13.516 62.5068 13.448 63.0188 13.448C64.0028 13.448 64.7668 13.68 65.3108 14.144C65.8548 14.608 66.1268 15.332 66.1268 16.316V20H64.3748ZM62.4068 20.096C61.9028 20.096 61.4708 20.012 61.1108 19.844C60.7508 19.668 60.4748 19.432 60.2828 19.136C60.0908 18.84 59.9948 18.508 59.9948 18.14C59.9948 17.756 60.0868 17.42 60.2708 17.132C60.4628 16.844 60.7628 16.62 61.1708 16.46C61.5788 16.292 62.1108 16.208 62.7668 16.208H64.4828V17.3H62.9708C62.5308 17.3 62.2268 17.372 62.0588 17.516C61.8988 17.66 61.8188 17.84 61.8188 18.056C61.8188 18.296 61.9108 18.488 62.0948 18.632C62.2868 18.768 62.5468 18.836 62.8748 18.836C63.1868 18.836 63.4668 18.764 63.7148 18.62C63.9628 18.468 64.1428 18.248 64.2548 17.96L64.5428 18.824C64.4068 19.24 64.1588 19.556 63.7988 19.772C63.4388 19.988 62.9748 20.096 62.4068 20.096Z" fill="#0C1C2B"/>
<path d="M20.5476 20V13.544H22.4196V20H20.5476ZM21.4836 12.644C21.1396 12.644 20.8596 12.544 20.6436 12.344C20.4276 12.144 20.3196 11.896 20.3196 11.6C20.3196 11.304 20.4276 11.056 20.6436 10.856C20.8596 10.656 21.1396 10.556 21.4836 10.556C21.8276 10.556 22.1076 10.652 22.3236 10.844C22.5396 11.028 22.6476 11.268 22.6476 11.564C22.6476 11.876 22.5396 12.136 22.3236 12.344C22.1156 12.544 21.8356 12.644 21.4836 12.644Z" fill="#00B77E"/>
<g clip-path="url(#clip0_12_10)">
<path d="M9 20.3333V9.22223" stroke="#00B77E" stroke-width="2" stroke-linecap="round" stroke-linejoin="round"/>
<path d="M11.0088 15.9073L9.00877 17.0184" stroke="#00B77E" stroke-width="2" stroke-linecap="round" stroke-linejoin="round"/>
<path d="M5 12.3333L9 9L13 12.3333" stroke="#00B77E" stroke-width="2" stroke-linecap="round" stroke-linejoin="round"/>
</g>
<defs>
<clipPath id="clip0_12_10">
<rect width="11" height="20" fill="white" transform="translate(3 1.5)"/>
</clipPath>
</defs>
</svg>
